<svg width="1806" height="401" viewBox="0 0 1806 401" fill="none" xmlns="http://www.w3.org/2000/svg">
<g opacity="0.2">
<path d="M1670.09 401C1642.76 401 1618.61 395.001 1597.64 383.003C1577.05 370.63 1560.95 353.195 1549.34 330.698C1538.11 307.827 1532.49 280.269 1532.49 248.024C1532.49 214.279 1538.48 186.346 1550.46 164.224C1562.82 142.103 1579.29 125.605 1599.89 114.732C1620.48 103.484 1643.32 97.8598 1668.4 97.8598C1694.24 97.8598 1717.45 103.859 1738.04 115.857C1759.01 127.48 1775.49 144.727 1787.47 167.599C1799.82 190.095 1806 217.841 1806 250.836C1806 283.831 1800.01 311.576 1788.03 334.073C1776.05 356.194 1759.76 372.879 1739.17 384.128C1718.58 395.376 1695.55 401 1670.09 401ZM1671.77 365.006C1690.87 365.006 1707.34 360.319 1721.2 350.945C1735.05 341.572 1745.72 328.449 1753.21 311.576C1760.7 294.329 1764.44 274.27 1764.44 251.398C1764.44 227.777 1760.51 207.343 1752.65 190.095C1744.78 172.473 1733.55 158.975 1718.95 149.602C1704.72 139.853 1687.5 134.979 1667.28 134.979C1648.56 134.979 1632.27 139.478 1618.42 148.477C1604.57 157.101 1593.71 169.849 1585.85 186.721C1577.98 203.218 1574.05 223.278 1574.05 246.899C1574.05 283.268 1582.85 312.139 1600.45 333.511C1618.05 354.507 1641.82 365.006 1671.77 365.006Z" fill="url(#paint0_linear_1172_2239)"/>
<path d="M1453.79 394.251V104.609H1495.35V394.251H1453.79ZM1474.57 51.7419C1464.09 51.7419 1456.22 49.6798 1450.98 45.5554C1445.74 41.0561 1443.12 34.4946 1443.12 25.871C1443.12 17.6222 1445.74 11.2482 1450.98 6.74896C1456.22 2.24965 1463.9 0 1474.01 0C1484.49 0 1492.36 2.24965 1497.6 6.74896C1503.21 10.8733 1506.02 17.2473 1506.02 25.871C1506.02 34.4946 1503.21 41.0561 1497.6 45.5554C1492.36 49.6798 1484.68 51.7419 1474.57 51.7419Z" fill="url(#paint1_linear_1172_2239)"/>
<path d="M1374.49 399.875C1349.4 399.875 1330.68 392.939 1318.33 379.066C1306.35 365.193 1300.36 344.571 1300.36 317.201V140.603H1256.55V104.609H1282.95C1291.56 104.609 1297.73 103.109 1301.48 100.109C1305.6 96.7349 1308.03 91.2983 1308.78 83.7994L1313.83 39.3689H1340.23V104.609H1426.72V141.165H1340.23V317.201C1340.23 332.573 1343.79 343.821 1350.9 350.945C1358.01 357.694 1368.12 361.069 1381.23 361.069C1388.34 361.069 1395.83 360.131 1403.69 358.257C1411.56 356.007 1419.79 351.695 1428.4 345.321V388.627C1417.92 392.376 1408.19 395.188 1399.2 397.063C1390.21 398.938 1381.98 399.875 1374.49 399.875Z" fill="url(#paint2_linear_1172_2239)"/>
<path d="M1003.86 394.251V104.609H1043.74L1037 197.969H1045.42C1051.04 175.098 1058.15 156.351 1066.76 141.728C1075.75 126.73 1086.98 115.669 1100.46 108.546C1113.94 101.422 1129.48 97.8598 1147.07 97.8598C1178.52 97.8598 1202.3 109.295 1218.4 132.167C1234.87 154.663 1243.11 187.846 1243.11 231.714V394.251H1201.55V234.526C1201.55 201.156 1196.12 176.41 1185.26 160.288C1174.78 144.165 1159.05 136.104 1138.09 136.104C1119.74 136.104 1103.64 142.103 1089.79 154.101C1076.31 166.099 1065.83 181.847 1058.34 201.344C1050.85 220.466 1046.54 241.087 1045.42 263.209V394.251H1003.86Z" fill="url(#paint3_linear_1172_2239)"/>
<path d="M851.934 401C829.47 401 809.813 397.626 792.965 390.877C776.116 383.753 761.889 373.629 750.282 360.506C738.675 347.383 730.064 331.823 724.448 313.826C718.831 295.829 716.023 275.957 716.023 254.21C716.023 231.714 718.831 211.092 724.448 192.345C730.438 173.223 739.05 156.538 750.282 142.29C761.514 128.043 775.18 117.169 791.28 109.67C807.754 101.797 826.662 97.8598 848.003 97.8598C865.975 97.8598 882.449 101.047 897.425 107.421C912.402 113.42 925.319 122.793 936.177 135.541C947.035 148.289 955.272 164.599 960.888 184.471C966.504 203.968 968.938 227.215 968.189 254.21L741.296 255.898V223.84L942.355 222.153L928.314 246.337C929.812 221.59 927.191 200.969 920.452 184.471C914.087 167.974 904.539 155.601 891.809 147.352C879.454 139.103 864.664 134.979 847.441 134.979C829.095 134.979 812.996 139.666 799.142 149.039C785.664 158.413 775.18 172.098 767.692 190.095C760.204 207.718 756.46 228.902 756.46 253.648C756.46 289.267 764.322 316.826 780.048 336.323C796.147 355.445 820.484 365.006 853.058 365.006C865.413 365.006 876.271 363.693 885.631 361.069C894.992 358.069 902.854 353.945 909.219 348.696C915.959 343.446 921.575 337.26 926.068 330.136C930.561 323.012 933.93 315.138 936.177 306.515L972.682 315.513C968.938 329.011 963.509 341.197 956.395 352.07C949.656 362.569 941.231 371.567 931.122 379.066C921.013 386.19 909.406 391.626 896.302 395.376C883.198 399.125 868.408 401 851.934 401Z" fill="url(#paint4_linear_1172_2239)"/>
<path d="M637.308 394.251V3.37447H678.868V394.251H637.308Z" fill="url(#paint5_linear_1172_2239)"/>
<path d="M485.382 401C462.917 401 443.261 397.626 426.412 390.877C409.564 383.753 395.336 373.629 383.729 360.506C372.123 347.383 363.511 331.823 357.895 313.826C352.279 295.829 349.471 275.957 349.471 254.21C349.471 231.714 352.279 211.092 357.895 192.345C363.886 173.223 372.497 156.538 383.729 142.29C394.962 128.043 408.628 117.169 424.727 109.67C441.201 101.797 460.109 97.8598 481.451 97.8598C499.422 97.8598 515.896 101.047 530.873 107.421C545.849 113.42 558.766 122.793 569.624 135.541C580.482 148.289 588.719 164.599 594.335 184.471C599.952 203.968 602.385 227.215 601.636 254.21L374.743 255.898V223.84L575.802 222.153L561.762 246.337C563.259 221.59 560.638 200.969 553.899 184.471C547.534 167.974 537.987 155.601 525.257 147.352C512.901 139.103 498.112 134.979 480.889 134.979C462.543 134.979 446.443 139.666 432.59 149.039C419.111 158.413 408.628 172.098 401.139 190.095C393.651 207.718 389.907 228.902 389.907 253.648C389.907 289.267 397.77 316.826 413.495 336.323C429.595 355.445 453.931 365.006 486.505 365.006C498.861 365.006 509.719 363.693 519.079 361.069C528.439 358.069 536.302 353.945 542.667 348.696C549.406 343.446 555.022 337.26 559.515 330.136C564.008 323.012 567.378 315.138 569.624 306.515L606.129 315.513C602.385 329.011 596.956 341.197 589.842 352.07C583.103 362.569 574.679 371.567 564.57 379.066C554.461 386.19 542.854 391.626 529.75 395.376C516.645 399.125 501.856 401 485.382 401Z" fill="url(#paint6_linear_1172_2239)"/>
<path d="M242.618 394.251V23.0589H284.739V394.251H242.618ZM0 394.251V23.0589H42.1212V394.251H0ZM19.0949 225.527V187.846H260.59V225.527H19.0949Z" fill="url(#paint7_linear_1172_2239)"/>
</g>
<defs>
<linearGradient id="paint0_linear_1172_2239" x1="1354.5" y1="388.747" x2="1354.5" y2="21.1642" gradientUnits="userSpaceOnUse">
<stop stop-color="#A9ABB5"/>
<stop offset="1" stop-color="#3E4049"/>
</linearGradient>
<linearGradient id="paint1_linear_1172_2239" x1="1354.5" y1="388.747" x2="1354.5" y2="21.1642" gradientUnits="userSpaceOnUse">
<stop stop-color="#A9ABB5"/>
<stop offset="1" stop-color="#3E4049"/>
</linearGradient>
<linearGradient id="paint2_linear_1172_2239" x1="1354.5" y1="388.747" x2="1354.5" y2="21.1642" gradientUnits="userSpaceOnUse">
<stop stop-color="#A9ABB5"/>
<stop offset="1" stop-color="#3E4049"/>
</linearGradient>
<linearGradient id="paint3_linear_1172_2239" x1="1354.5" y1="388.747" x2="1354.5" y2="21.1642" gradientUnits="userSpaceOnUse">
<stop stop-color="#A9ABB5"/>
<stop offset="1" stop-color="#3E4049"/>
</linearGradient>
<linearGradient id="paint4_linear_1172_2239" x1="1354.5" y1="388.747" x2="1354.5" y2="21.1642" gradientUnits="userSpaceOnUse">
<stop stop-color="#A9ABB5"/>
<stop offset="1" stop-color="#3E4049"/>
</linearGradient>
<linearGradient id="paint5_linear_1172_2239" x1="1354.5" y1="388.747" x2="1354.5" y2="21.1642" gradientUnits="userSpaceOnUse">
<stop stop-color="#A9ABB5"/>
<stop offset="1" stop-color="#3E4049"/>
</linearGradient>
<linearGradient id="paint6_linear_1172_2239" x1="1354.5" y1="388.747" x2="1354.5" y2="21.1642" gradientUnits="userSpaceOnUse">
<stop stop-color="#A9ABB5"/>
<stop offset="1" stop-color="#3E4049"/>
</linearGradient>
<linearGradient id="paint7_linear_1172_2239" x1="1354.5" y1="388.747" x2="1354.5" y2="21.1642" gradientUnits="userSpaceOnUse">
<stop stop-color="#A9ABB5"/>
<stop offset="1" stop-color="#3E4049"/>
</linearGradient>
</defs>
</svg>
