<svg width="41" height="26" viewBox="0 0 41 26" fill="none" xmlns="http://www.w3.org/2000/svg">
<path d="M38.0484 0.00682035C38.5291 0.00773979 39.0244 -0.0156643 39.4997 0.0695933C39.8509 0.132533 40.1779 0.28817 40.4315 0.541352C40.6862 0.795787 40.8415 1.12269 40.9041 1.47517C40.99 1.95069 40.967 2.44452 40.967 2.92572C40.967 2.92572 40.967 22.65 40.967 22.6527C40.967 23.1335 40.9896 23.6304 40.9036 24.1057C40.8401 24.4564 40.6852 24.7832 40.432 25.0363C40.1785 25.2896 39.8521 25.4455 39.5014 25.5086C39.0257 25.5934 38.5296 25.5714 38.0484 25.5714H2.92676C2.92483 25.5714 2.923 25.5714 2.92107 25.5714C2.44129 25.5714 1.94939 25.5936 1.47512 25.5089C1.12314 25.446 0.796321 25.2901 0.54247 25.0359C0.289874 24.7828 0.133234 24.4527 0.0708791 24.1031C-0.0139606 23.6283 0.00777173 23.1331 0.00827324 22.6528C0.00827324 22.6528 0.00827324 2.94052 0.00827324 2.92581C0.00827324 2.27492 -0.0672883 1.56168 0.238302 0.961287C0.395025 0.65344 0.655395 0.393405 0.963075 0.236932C1.55695 -0.0650636 2.28106 0.00824126 2.92684 0.00690389H38.0484" fill="#626573"/>
<path d="M10.7753 8.30663C11.1417 7.84842 11.3902 7.23322 11.3246 6.60449C10.7883 6.63116 10.1339 6.95831 9.75505 7.41686C9.41485 7.80955 9.11378 8.45057 9.19227 9.05289C9.79433 9.10505 10.3957 8.75198 10.7753 8.30663Z" fill="#151519"/>
<path d="M11.3178 9.16999C10.4436 9.11792 9.70025 9.66616 9.28282 9.66616C8.86515 9.66616 8.2258 9.19624 7.53429 9.20886C6.63432 9.22207 5.79922 9.73094 5.3425 10.5403C4.40317 12.1594 5.09459 14.5609 6.0081 15.8796C6.45169 16.532 6.9863 17.2502 7.69076 17.2245C8.35636 17.1984 8.61723 16.7935 9.42626 16.7935C10.2347 16.7935 10.4697 17.2245 11.1743 17.2115C11.9049 17.1984 12.3617 16.5587 12.8053 15.9058C13.3142 15.1621 13.5225 14.444 13.5357 14.4046C13.5225 14.3916 12.1267 13.8561 12.1139 12.2505C12.1007 10.9062 13.2097 10.2667 13.2619 10.227C12.6356 9.30064 11.6571 9.19615 11.3178 9.16999Z" fill="#151519"/>
<path d="M18.93 7.35059C20.8301 7.35059 22.1532 8.66038 22.1532 10.5673C22.1532 12.481 20.8029 13.7976 18.8823 13.7976H16.7786V17.1432H15.2585V7.35059H18.93ZM16.7786 12.5217H18.5227C19.8461 12.5217 20.5992 11.8092 20.5992 10.5741C20.5992 9.33901 19.846 8.63321 18.5294 8.63321H16.7786V12.5217Z" fill="#151519"/>
<path d="M22.5503 15.1146C22.5503 13.8659 23.5072 13.0991 25.2039 13.004L27.1582 12.8887V12.339C27.1582 11.5449 26.6221 11.0699 25.7265 11.0699C24.878 11.0699 24.3486 11.477 24.2198 12.115H22.8355C22.9169 10.8255 24.0162 9.87549 25.7807 9.87549C27.5112 9.87549 28.6173 10.7917 28.6173 12.2235V17.1435H27.2125V15.9695H27.1787C26.7648 16.7635 25.8621 17.2656 24.9257 17.2656C23.5276 17.2658 22.5503 16.3972 22.5503 15.1146ZM27.1581 14.47V13.9067L25.4004 14.0152C24.5249 14.0763 24.0296 14.4631 24.0296 15.0739C24.0296 15.6981 24.5453 16.1053 25.3325 16.1053C26.3573 16.1054 27.1581 15.3996 27.1581 14.47Z" fill="#151519"/>
<path d="M29.9433 19.7699V18.5822C30.0518 18.6093 30.296 18.6093 30.4183 18.6093C31.0968 18.6093 31.4634 18.3244 31.6872 17.5915C31.6872 17.5779 31.8163 17.1572 31.8163 17.1504L29.2375 10.0044H30.8253L32.6307 15.8135H32.6577L34.4631 10.0044H36.0103L33.3363 17.5168C32.7258 19.2473 32.02 19.8038 30.5406 19.8038C30.4183 19.8037 30.0518 19.7902 29.9433 19.7699Z" fill="#151519"/>
</svg>
