<svg width="42" height="26" viewBox="0 0 42 26" fill="none" xmlns="http://www.w3.org/2000/svg">
<path d="M39.0182 0.00682035C39.4989 0.00773979 39.9941 -0.0156643 40.4695 0.0695933C40.8206 0.132533 41.1476 0.28817 41.4012 0.541352C41.656 0.795787 41.8112 1.12269 41.8738 1.47517C41.9597 1.95069 41.9367 2.44452 41.9367 2.92572C41.9367 2.92572 41.9367 22.65 41.9367 22.6527C41.9367 23.1335 41.9593 23.6304 41.8733 24.1057C41.8099 24.4564 41.6549 24.7832 41.4017 25.0363C41.1483 25.2896 40.8218 25.4455 40.4711 25.5086C39.9954 25.5934 39.4993 25.5714 39.0181 25.5714H3.89648C3.89456 25.5714 3.89272 25.5714 3.8908 25.5714C3.41102 25.5714 2.91911 25.5936 2.44485 25.5089C2.09287 25.446 1.76605 25.2901 1.5122 25.0359C1.2596 24.7828 1.10296 24.4527 1.04061 24.1031C0.955766 23.6283 0.977498 23.1331 0.978 22.6528C0.978 22.6528 0.978 2.94052 0.978 2.92581C0.978 2.27492 0.902438 1.56168 1.20803 0.961287C1.36475 0.65344 1.62512 0.393405 1.9328 0.236932C2.52668 -0.0650636 3.25078 0.00824126 3.89657 0.00690389H39.0182" fill="#626573"/>
<path d="M8.93234 8.87012L5.24463 17.0494H9.65933L10.2066 15.7453H11.4576L12.0049 17.0494H16.8643V16.0541L17.2973 17.0494H19.8109L20.2439 16.033V17.0494H30.35L31.5789 15.7791L32.7295 17.0494L37.9202 17.0599L34.2209 12.9826L37.9202 8.87012H32.81L31.6138 10.1169L30.4994 8.87012H19.5053L18.5612 10.9813L17.595 8.87012H13.1895V9.83159L12.6994 8.87012C12.6994 8.87012 8.93234 8.87012 8.93234 8.87012ZM9.78656 10.0316H11.9385L14.3845 15.578V10.0316H16.7419L18.6312 14.0083L20.3724 10.0316H22.718V15.9008H21.2907L21.2791 11.3017L19.1983 15.9008H17.9216L15.8292 11.3017V15.9008H12.8931L12.3364 14.585H9.32911L8.77363 15.8996H7.20048L9.78656 10.0316ZM24.0238 10.0316H29.8272L31.6022 11.9533L33.4344 10.0316H35.2094L32.5125 12.9814L35.2094 15.8973H33.3539L31.5789 13.9533L29.7373 15.8973H24.0238V10.0316ZM10.8334 11.0246L9.84262 13.3686H11.823L10.8334 11.0246ZM25.4569 11.2468V12.3182H28.6229V13.5124H25.4569V14.6821H29.008L30.6581 12.9592L29.078 11.2458H25.4569V11.2468Z" fill="#151519"/>
</svg>
