<svg width="42" height="26" viewBox="0 0 42 26" fill="none" xmlns="http://www.w3.org/2000/svg">
<path d="M38.9881 0.00682035C39.4688 0.00773979 39.9641 -0.0156643 40.4394 0.0695933C40.7906 0.132533 41.1176 0.28817 41.3712 0.541352C41.6259 0.795787 41.7812 1.12269 41.8438 1.47517C41.9297 1.95069 41.9067 2.44452 41.9067 2.92572C41.9067 2.92572 41.9067 22.65 41.9067 22.6527C41.9067 23.1335 41.9293 23.6304 41.8433 24.1057C41.7798 24.4564 41.6249 24.7832 41.3717 25.0363C41.1182 25.2896 40.7918 25.4455 40.4411 25.5086C39.9653 25.5934 39.4693 25.5714 38.9881 25.5714H3.86645C3.86453 25.5714 3.86269 25.5714 3.86077 25.5714C3.38099 25.5714 2.88908 25.5936 2.41482 25.5089C2.06284 25.446 1.73602 25.2901 1.48217 25.0359C1.22957 24.7828 1.07293 24.4527 1.01058 24.1031C0.925737 23.6283 0.947469 23.1331 0.947971 22.6528C0.947971 22.6528 0.947971 2.94052 0.947971 2.92581C0.947971 2.27492 0.872409 1.56168 1.178 0.961287C1.33472 0.65344 1.59509 0.393405 1.90277 0.236932C2.49665 -0.0650636 3.22075 0.00824126 3.86654 0.00690389H38.9881" fill="#626573"/>
<path d="M11.1082 9.03211C10.718 8.76385 10.2088 8.62939 9.58062 8.62939H7.14863C6.95605 8.62939 6.84966 8.72571 6.82945 8.9181L5.84148 15.1198C5.83121 15.1807 5.84645 15.2364 5.88706 15.287C5.92743 15.3377 5.97821 15.363 6.03903 15.363H7.19421C7.39682 15.363 7.50818 15.2669 7.52863 15.0742L7.80218 13.4023C7.81217 13.3213 7.84781 13.2554 7.90862 13.2047C7.96939 13.154 8.0454 13.1209 8.1366 13.1057C8.2278 13.0907 8.3138 13.0831 8.39501 13.0831C8.47599 13.0831 8.57221 13.0882 8.68385 13.0983C8.79522 13.1084 8.86621 13.1133 8.89664 13.1133C9.76804 13.1133 10.452 12.8678 10.9486 12.3762C11.445 11.8848 11.6935 11.2034 11.6935 10.3318C11.6935 9.73398 11.4983 9.30079 11.1082 9.03211ZM9.85427 10.8942C9.80345 11.2489 9.67187 11.4819 9.45908 11.5934C9.24625 11.705 8.94226 11.7605 8.54712 11.7605L8.04549 11.7758L8.30395 10.1493C8.32411 10.038 8.38995 9.98222 8.5015 9.98222H8.79039C9.19552 9.98222 9.48956 10.0406 9.67196 10.157C9.85427 10.2736 9.91509 10.5194 9.85427 10.8942Z" fill="#151519"/>
<path d="M36.7734 8.62939H35.6486C35.5369 8.62939 35.4711 8.68515 35.4511 8.7966L34.463 15.1198L34.4478 15.1501C34.4478 15.2011 34.4681 15.249 34.5087 15.2946C34.549 15.3401 34.5999 15.3629 34.6606 15.3629H35.6639C35.8561 15.3629 35.9626 15.2668 35.9831 15.0742L36.9711 8.85728V8.84218C36.971 8.70034 36.905 8.62939 36.7734 8.62939Z" fill="#151519"/>
<path d="M23.1846 11.0766C23.1846 11.026 23.1642 10.9778 23.1239 10.9323C23.0832 10.8867 23.0376 10.8638 22.9871 10.8638H21.8166C21.705 10.8638 21.6138 10.9147 21.543 11.0157L19.9319 13.3871L19.2631 11.107C19.2122 10.945 19.1008 10.8638 18.9287 10.8638H17.7886C17.7378 10.8638 17.6922 10.8866 17.6519 10.9323C17.6112 10.9778 17.5911 11.0261 17.5911 11.0766C17.5911 11.097 17.6899 11.3958 17.8874 11.9734C18.085 12.5511 18.2978 13.1743 18.5258 13.8432C18.7539 14.5119 18.8728 14.8667 18.883 14.907C18.052 16.042 17.6366 16.65 17.6366 16.731C17.6366 16.8628 17.7025 16.9286 17.8342 16.9286H19.0047C19.1161 16.9286 19.2073 16.8781 19.2783 16.7767L23.1543 11.1829C23.1744 11.1628 23.1846 11.1275 23.1846 11.0766Z" fill="#151519"/>
<path d="M34.0831 10.8638H32.9278C32.7859 10.8638 32.7 11.031 32.6696 11.3654C32.4058 10.9603 31.9248 10.7573 31.2255 10.7573C30.4959 10.7573 29.8751 11.031 29.3635 11.5782C28.8517 12.1254 28.5959 12.769 28.5959 13.5086C28.5959 14.1066 28.7707 14.5828 29.1202 14.9374C29.4699 15.2923 29.9385 15.4694 30.5264 15.4694C30.8202 15.4694 31.1191 15.4085 31.4231 15.287C31.7271 15.1654 31.965 15.0033 32.1376 14.8006C32.1376 14.8108 32.1273 14.8563 32.1072 14.9373C32.0867 15.0185 32.0767 15.0794 32.0767 15.1197C32.0767 15.2821 32.1424 15.3629 32.2744 15.3629H33.3232C33.5155 15.3629 33.6271 15.2668 33.6575 15.0742L34.2807 11.107C34.2907 11.0462 34.2755 10.9905 34.2351 10.9398C34.1945 10.8892 34.1439 10.8638 34.0831 10.8638ZM32.0995 13.8582C31.8411 14.1115 31.5296 14.2382 31.1648 14.2382C30.8708 14.2382 30.6328 14.1572 30.4503 13.995C30.2679 13.8331 30.1767 13.6102 30.1767 13.3262C30.1767 12.9515 30.3034 12.6346 30.5567 12.3762C30.8098 12.1178 31.1242 11.9886 31.4992 11.9886C31.7826 11.9886 32.0183 12.0722 32.2059 12.2394C32.3933 12.4066 32.4872 12.6372 32.4872 12.9311C32.4872 13.2958 32.3579 13.605 32.0995 13.8582Z" fill="#151519"/>
<path d="M16.8159 10.8638H15.6607C15.5186 10.8638 15.4327 11.031 15.4022 11.3654C15.1286 10.9603 14.6472 10.7573 13.9582 10.7573C13.2286 10.7573 12.6078 11.031 12.0962 11.5782C11.5844 12.1254 11.3286 12.769 11.3286 13.5086C11.3286 14.1066 11.5034 14.5828 11.8531 14.9374C12.2027 15.2923 12.6712 15.4694 13.259 15.4694C13.5426 15.4694 13.8367 15.4085 14.1406 15.287C14.4446 15.1654 14.6878 15.0033 14.8702 14.8006C14.8296 14.9222 14.8094 15.0286 14.8094 15.1197C14.8094 15.2821 14.8752 15.3629 15.007 15.3629H16.0558C16.2482 15.3629 16.3598 15.2668 16.3902 15.0742L17.0134 11.107C17.0233 11.0462 17.0082 10.9905 16.9678 10.9398C16.9272 10.8892 16.8766 10.8638 16.8159 10.8638ZM14.8323 13.8657C14.5738 14.1143 14.257 14.2382 13.8823 14.2382C13.5882 14.2382 13.3526 14.1572 13.1754 13.995C12.998 13.8331 12.9094 13.6102 12.9094 13.3262C12.9094 12.9515 13.036 12.6346 13.2895 12.3762C13.5426 12.1178 13.8568 11.9886 14.2318 11.9886C14.5154 11.9886 14.751 12.0722 14.9387 12.2394C15.126 12.4066 15.2199 12.6372 15.2199 12.9311C15.2199 13.306 15.0907 13.6177 14.8323 13.8657Z" fill="#151519"/>
<path d="M28.3753 9.03211C27.9851 8.76385 27.476 8.62939 26.8478 8.62939H24.431C24.2282 8.62939 24.1167 8.72571 24.0965 8.9181L23.1086 15.1197C23.0983 15.1806 23.1135 15.2363 23.1542 15.287C23.1944 15.3377 23.2453 15.3629 23.3061 15.3629H24.5525C24.674 15.3629 24.7551 15.2971 24.7957 15.1654L25.0693 13.4023C25.0794 13.3212 25.1149 13.2554 25.1757 13.2046C25.2365 13.154 25.3124 13.1209 25.4037 13.1057C25.4949 13.0906 25.5809 13.083 25.6622 13.083C25.7431 13.083 25.8394 13.0882 25.9509 13.0982C26.0623 13.1084 26.1334 13.1133 26.1636 13.1133C27.0352 13.1133 27.7191 12.8678 28.2157 12.3762C28.7122 11.8848 28.9605 11.2033 28.9605 10.3317C28.9605 9.73398 28.7654 9.30079 28.3753 9.03211ZM26.8173 11.5326C26.5944 11.6846 26.26 11.7605 25.8142 11.7605L25.3277 11.7758L25.5862 10.1493C25.6063 10.038 25.6721 9.98222 25.7837 9.98222H26.0572C26.2801 9.98222 26.4575 9.99234 26.5894 10.0126C26.7209 10.033 26.8478 10.0961 26.9693 10.2025C27.091 10.309 27.1518 10.4635 27.1518 10.6662C27.1518 11.0918 27.0402 11.3805 26.8173 11.5326Z" fill="#151519"/>
</svg>
