<svg width="42" height="26" viewBox="0 0 42 26" fill="none" xmlns="http://www.w3.org/2000/svg">
<path d="M38.9579 0.00682035C39.4386 0.00773979 39.9338 -0.0156643 40.4092 0.0695933C40.7603 0.132533 41.0873 0.28817 41.3409 0.541352C41.5957 0.795787 41.7509 1.12269 41.8135 1.47517C41.8994 1.95069 41.8764 2.44452 41.8764 2.92572C41.8764 2.92572 41.8764 22.65 41.8764 22.6527C41.8764 23.1335 41.899 23.6304 41.813 24.1057C41.7496 24.4564 41.5946 24.7832 41.3414 25.0363C41.088 25.2896 40.7615 25.4455 40.4108 25.5086C39.9351 25.5934 39.439 25.5714 38.9578 25.5714H3.83618C3.83426 25.5714 3.83242 25.5714 3.8305 25.5714C3.35071 25.5714 2.85881 25.5936 2.38455 25.5089C2.03257 25.446 1.70574 25.2901 1.45189 25.0359C1.1993 24.7828 1.04266 24.4527 0.980303 24.1031C0.895463 23.6283 0.917196 23.1331 0.917697 22.6528C0.917697 22.6528 0.917697 2.94052 0.917697 2.92581C0.917697 2.27492 0.842136 1.56168 1.14773 0.961287C1.30445 0.65344 1.56482 0.393405 1.8725 0.236932C2.46638 -0.0650636 3.19048 0.00824126 3.83626 0.00690389H38.9579" fill="#626573"/>
<path fill-rule="evenodd" clip-rule="evenodd" d="M4.59962 10.4019C4.59928 10.3138 4.61234 10.2818 4.71225 10.2833C5.22473 10.2905 5.73775 10.2762 6.2499 10.2921C7.00337 10.3156 7.68803 10.5351 8.24647 11.0673C8.63087 11.4335 8.87245 11.8819 8.96757 12.4021C9.157 13.4385 8.86479 14.318 8.07529 15.0211C7.64427 15.4049 7.12779 15.5978 6.55723 15.6439C5.92838 15.6946 5.29773 15.6543 4.66809 15.668C4.59275 15.6696 4.60115 15.6289 4.60121 15.5817C4.60175 15.0511 4.60288 11.2599 4.59962 10.4019ZM5.64796 14.656C5.64756 14.7289 5.66281 14.7522 5.73995 14.7512C5.94989 14.7485 6.16024 14.7506 6.36892 14.7272C6.74999 14.6845 7.10741 14.5752 7.38636 14.2961C7.85528 13.8269 8.0276 13.2564 7.89738 12.6109C7.76623 11.9607 7.39202 11.5026 6.74313 11.3015C6.42707 11.2036 6.09843 11.2097 5.77132 11.2056C5.67813 11.2044 5.64583 11.2228 5.64689 11.3251C5.65269 11.8766 5.65109 14.0973 5.64796 14.656Z" fill="#151519"/>
<path fill-rule="evenodd" clip-rule="evenodd" d="M36.4068 13.4109C36.9704 14.1647 37.5251 14.9066 38.0933 15.6664C38.0048 15.6664 37.9357 15.6664 37.8666 15.6664C37.5496 15.6664 37.2326 15.6615 36.9158 15.6694C36.8198 15.6718 36.7715 15.636 36.7217 15.5615C36.2824 14.9029 35.8392 14.2469 35.3972 13.5901C35.3913 13.5812 35.384 13.5728 35.38 13.5631C35.3533 13.4975 35.2959 13.5018 35.245 13.5123C35.1889 13.5239 35.2157 13.5765 35.2156 13.6097C35.2138 14.2542 35.2114 14.8988 35.2171 15.5433C35.218 15.6505 35.1863 15.6713 35.0866 15.6688C34.8091 15.6617 34.5311 15.6643 34.2534 15.6678C34.1834 15.6687 34.155 15.656 34.155 15.5765C34.1574 13.8422 34.157 12.1079 34.1559 10.3737C34.1559 10.3149 34.1622 10.2831 34.2348 10.2847C34.8327 10.2972 35.4313 10.2609 36.0285 10.3067C36.4432 10.3385 36.8333 10.4507 37.1521 10.7334C37.5346 11.0726 37.6423 11.5176 37.6163 12.0077C37.578 12.7286 37.1852 13.2045 36.4852 13.382C36.4617 13.3879 36.4392 13.3988 36.4068 13.4109ZM35.2144 11.9527C35.2144 12.1908 35.2186 12.4291 35.212 12.667C35.2097 12.7505 35.2362 12.7669 35.3128 12.7637C35.4689 12.7573 35.6249 12.7607 35.7811 12.7443C36.238 12.6961 36.4979 12.432 36.5318 11.9742C36.5591 11.6057 36.3707 11.3269 36.0202 11.212C35.7897 11.1364 35.5518 11.1446 35.3142 11.14C35.2366 11.1384 35.2102 11.1553 35.2123 11.2383C35.2184 11.4763 35.2144 11.7145 35.2144 11.9527Z" fill="#151519"/>
<path fill-rule="evenodd" clip-rule="evenodd" d="M30.4961 10.3905C30.4958 10.3097 30.5122 10.2834 30.5993 10.2837C31.525 10.2872 32.4507 10.2867 33.3764 10.2843C33.4485 10.2841 33.4745 10.2982 33.4729 10.3763C33.4676 10.6254 33.4677 10.8748 33.4729 11.1239C33.4745 11.199 33.4466 11.2091 33.3817 11.2088C32.8085 11.2066 32.2352 11.2102 31.662 11.205C31.5646 11.2041 31.5451 11.2325 31.5468 11.3239C31.5525 11.6478 31.5518 11.9719 31.547 12.2959C31.5458 12.3768 31.5685 12.3964 31.6479 12.3959C32.1998 12.3924 32.7517 12.3963 33.3036 12.3917C33.3907 12.391 33.4075 12.4178 33.4057 12.4979C33.4006 12.7363 33.4007 12.975 33.4058 13.2134C33.4074 13.2888 33.3859 13.3068 33.3119 13.3064C32.7636 13.3031 32.2152 13.3076 31.667 13.3019C31.5648 13.3008 31.5458 13.3331 31.5469 13.4269C31.5518 13.8327 31.5512 14.2386 31.5472 14.6445C31.5464 14.7253 31.5632 14.7518 31.6503 14.7512C32.2234 14.7468 32.7967 14.751 33.37 14.7467C33.4556 14.7461 33.4747 14.7705 33.4729 14.8519C33.4675 15.0975 33.4693 15.3433 33.4722 15.589C33.4729 15.6478 33.4585 15.6678 33.3961 15.6676C32.4561 15.6657 31.5161 15.665 30.5762 15.6685C30.4906 15.6688 30.4974 15.627 30.4974 15.5711C30.498 14.7022 30.499 11.2485 30.4961 10.3905Z" fill="#151519"/>
<path fill-rule="evenodd" clip-rule="evenodd" d="M11.6226 14.1117C11.7642 14.3766 11.951 14.5923 12.226 14.7131C12.5216 14.843 12.826 14.8883 13.1328 14.7511C13.4116 14.6265 13.5622 14.4042 13.5742 14.1015C13.5862 13.8016 13.4257 13.6007 13.1659 13.471C12.8673 13.3219 12.5444 13.2334 12.2393 13.1009C11.9411 12.9713 11.657 12.8215 11.4511 12.5562C11.3253 12.3941 11.2555 12.2088 11.2311 12.0104C11.1224 11.1267 11.6063 10.4948 12.3403 10.2871C13.107 10.0701 13.7974 10.2608 14.4159 10.7468C14.4616 10.7827 14.4772 10.808 14.4335 10.8628C14.276 11.0601 14.1221 11.2602 13.9733 11.464C13.9281 11.526 13.9083 11.5084 13.8671 11.4645C13.6989 11.2849 13.5058 11.1395 13.2555 11.1037C12.9397 11.0585 12.6409 11.099 12.421 11.3608C12.2244 11.5949 12.2681 11.8897 12.5164 12.0661C12.7386 12.2239 12.9977 12.3034 13.2483 12.4003C13.4833 12.4911 13.7128 12.5927 13.9325 12.7172C14.3807 12.9713 14.627 13.3441 14.6591 13.8664C14.7133 14.7483 14.2496 15.4932 13.3861 15.715C12.4647 15.9518 11.5644 15.6895 10.9733 14.817C10.9489 14.781 10.9463 14.7599 10.9799 14.7281C11.1939 14.5251 11.4059 14.3199 11.6226 14.1117Z" fill="#151519"/>
<path fill-rule="evenodd" clip-rule="evenodd" d="M24.8594 10.2857C25.2246 10.2857 25.5734 10.288 25.9221 10.2837C25.9919 10.2828 26.0192 10.3079 26.0433 10.369C26.3642 11.1816 27.2892 13.5086 27.4313 13.8678C27.4962 13.7962 28.4204 11.4522 28.8561 10.3653C28.8734 10.3219 28.8859 10.2837 28.9492 10.2842C29.3051 10.2874 29.6609 10.2858 30.0318 10.2858C29.9472 10.4891 28.4231 14.1053 27.7448 15.7201C27.7179 15.784 27.6882 15.8049 27.6215 15.8024C27.4864 15.7973 27.3509 15.7976 27.2158 15.8023C27.1557 15.8045 27.1285 15.7825 27.1062 15.7284C26.6882 14.7144 25.2215 11.1712 24.9081 10.4127C24.892 10.374 24.878 10.3344 24.8594 10.2857Z" fill="#151519"/>
<path fill-rule="evenodd" clip-rule="evenodd" d="M19.1367 11.7408C18.9382 11.551 18.748 11.3915 18.5208 11.2864C17.6269 10.8731 16.5507 11.3171 16.2061 12.2652C15.9407 12.9955 16.0291 13.6899 16.5623 14.2829C16.9188 14.6794 17.3899 14.8241 17.9152 14.8185C18.332 14.8142 18.6768 14.6447 18.9816 14.3754C19.0265 14.3358 19.0699 14.2945 19.1135 14.2543C19.1514 14.275 19.1357 14.3071 19.1358 14.3321C19.137 14.6846 19.1359 15.0371 19.1373 15.3897C19.1375 15.4432 19.1296 15.4758 19.0715 15.5038C17.992 16.0236 16.6264 15.8178 15.7818 14.9533C15.2591 14.4183 15.0018 13.7724 14.9855 13.0247C14.958 11.7596 15.8009 10.6564 16.9736 10.302C17.6931 10.0846 18.3956 10.1263 19.0733 10.4664C19.1097 10.4846 19.1381 10.5004 19.1378 10.5508C19.1357 10.9388 19.1367 11.3267 19.1367 11.7408Z" fill="#151519"/>
<path fill-rule="evenodd" clip-rule="evenodd" d="M10.5555 15.5491C10.5559 15.6375 10.5427 15.6723 10.4416 15.6694C10.157 15.661 9.87192 15.6643 9.5871 15.668C9.51796 15.6689 9.49672 15.6511 9.49678 15.5797C9.49871 13.8456 9.49885 12.1114 9.49658 10.3772C9.49645 10.2991 9.52229 10.2837 9.5939 10.2846C9.87518 10.2884 10.1566 10.2904 10.4378 10.2838C10.5309 10.2816 10.5566 10.304 10.5561 10.4C10.5519 11.2617 10.5525 14.6944 10.5555 15.5491Z" fill="#151519"/>
<path d="M22.3148 15.8309C23.8852 15.8309 25.1583 14.5533 25.1583 12.9772C25.1583 11.4012 23.8852 10.1235 22.3148 10.1235C20.7443 10.1235 19.4712 11.4012 19.4712 12.9772C19.4712 14.5533 20.7443 15.8309 22.3148 15.8309Z" fill="#151519"/>
<path d="M22.3148 15.8309C23.8852 15.8309 25.1583 14.5533 25.1583 12.9772C25.1583 11.4012 23.8852 10.1235 22.3148 10.1235C20.7443 10.1235 19.4712 11.4012 19.4712 12.9772C19.4712 14.5533 20.7443 15.8309 22.3148 15.8309Z" fill="#151519"/>
</svg>
