<svg width="42" height="26" viewBox="0 0 42 26" fill="none" xmlns="http://www.w3.org/2000/svg">
<path d="M38.9276 0.00682035C39.4083 0.00773979 39.9035 -0.0156643 40.3789 0.0695933C40.73 0.132533 41.057 0.28817 41.3106 0.541352C41.5654 0.795787 41.7206 1.12269 41.7832 1.47517C41.8692 1.95069 41.8462 2.44452 41.8462 2.92572C41.8462 2.92572 41.8462 22.65 41.8462 22.6527C41.8462 23.1335 41.8687 23.6304 41.7827 24.1057C41.7193 24.4564 41.5643 24.7832 41.3111 25.0363C41.0577 25.2896 40.7312 25.4455 40.3806 25.5086C39.9048 25.5934 39.4087 25.5714 38.9275 25.5714H3.80591C3.80398 25.5714 3.80215 25.5714 3.80022 25.5714C3.32044 25.5714 2.82854 25.5936 2.35427 25.5089C2.00229 25.446 1.67547 25.2901 1.42162 25.0359C1.16902 24.7828 1.01238 24.4527 0.950029 24.1031C0.86519 23.6283 0.886922 23.1331 0.887424 22.6528C0.887424 22.6528 0.887424 2.94052 0.887424 2.92581C0.887424 2.27492 0.811862 1.56168 1.11745 0.961287C1.27418 0.65344 1.53455 0.393405 1.84223 0.236932C2.4361 -0.0650636 3.16021 0.00824126 3.80599 0.00690389H38.9276" fill="#626573"/>
<path d="M16.5117 17.5263L18.0405 8.45881H20.4857L18.9558 17.5263H16.5117ZM27.7902 8.65428C27.3059 8.47057 26.5467 8.27344 25.5987 8.27344C23.1824 8.27344 21.4806 9.50327 21.466 11.2659C21.4524 12.5688 22.6811 13.2957 23.6086 13.7294C24.5605 14.1739 24.8804 14.4573 24.8758 14.8541C24.8697 15.462 24.1157 15.7395 23.4128 15.7395C22.4342 15.7395 21.9142 15.6021 21.1112 15.2637L20.796 15.1196L20.4528 17.1494C21.024 17.4026 22.0801 17.6218 23.1767 17.6332C25.7472 17.6332 27.4158 16.4174 27.4348 14.5351C27.4439 13.5036 26.7925 12.7187 25.3817 12.0715C24.527 11.652 24.0036 11.3721 24.0091 10.9474C24.0091 10.5705 24.4522 10.1674 25.4096 10.1674C26.2091 10.1549 26.7884 10.3311 27.2397 10.5148L27.4588 10.6195L27.7902 8.65428ZM34.0827 8.45867H32.1933C31.608 8.45867 31.1699 8.62014 30.9129 9.21062L27.2813 17.5203H29.849C29.849 17.5203 30.2688 16.4031 30.3637 16.1577C30.6443 16.1577 33.1388 16.1616 33.4953 16.1616C33.5685 16.4791 33.7929 17.5203 33.7929 17.5203H36.0618L34.0827 8.45839V8.45867ZM31.0849 14.3139C31.2871 13.7915 32.0591 11.7791 32.0591 11.7791C32.0447 11.8033 32.2599 11.2541 32.3833 10.9137L32.5486 11.6955C32.5486 11.6955 33.0168 13.8599 33.1147 14.3138H31.0849V14.3139ZM14.4359 8.45867L12.0419 14.6423L11.7869 13.3857C11.3412 11.9371 9.95269 10.3677 8.40039 9.58196L10.5894 17.5118L13.1766 17.5089L17.0262 8.45858L14.4359 8.45853" fill="#151519"/>
<path d="M8.05624 8.10645H3.78483L3.75098 8.31101C7.07409 9.12482 9.27287 11.0915 10.1858 13.4549L9.25703 8.93679C9.09673 8.31422 8.63167 8.12839 8.05634 8.1067" fill="#151519"/>
</svg>
