<svg width="330" height="74" viewBox="0 0 330 74" fill="none" xmlns="http://www.w3.org/2000/svg">
<path d="M305.166 73.1687C300.172 73.1687 295.759 72.0741 291.928 69.8848C288.165 67.6272 285.223 64.4459 283.102 60.3411C281.05 56.1678 280.024 51.1394 280.024 45.2558C280.024 39.0986 281.118 34.0017 283.307 29.9653C285.565 25.9289 288.575 22.9187 292.338 20.9347C296.101 18.8822 300.274 17.856 304.858 17.856C309.578 17.856 313.82 18.9507 317.583 21.1399C321.414 23.2607 324.424 26.4078 326.614 30.581C328.871 34.6859 330 39.7485 330 45.7689C330 51.7893 328.905 56.852 326.716 60.9568C324.527 64.9932 321.551 68.0377 317.788 70.0901C314.025 72.1425 309.818 73.1687 305.166 73.1687ZM305.474 66.601C308.963 66.601 311.973 65.7458 314.504 64.0354C317.036 62.3251 318.985 59.9306 320.354 56.852C321.722 53.7049 322.406 50.0448 322.406 45.8715C322.406 41.5615 321.688 37.8329 320.251 34.6859C318.814 31.4704 316.762 29.0075 314.094 27.2972C311.494 25.5184 308.347 24.629 304.653 24.629C301.232 24.629 298.256 25.45 295.725 27.0919C293.193 28.6654 291.209 30.9915 289.773 34.0701C288.336 37.0804 287.618 40.7405 287.618 45.0506C287.618 51.6867 289.225 56.9546 292.441 60.8542C295.656 64.6854 300 66.601 305.474 66.601Z" fill="url(#paint0_linear_1172_2369)"/>
<path d="M265.643 71.9372V19.0875H273.237V71.9372H265.643ZM269.44 9.44112C267.524 9.44112 266.088 9.06485 265.13 8.3123C264.172 7.49133 263.693 6.29408 263.693 4.72056C263.693 3.21545 264.172 2.05242 265.13 1.23145C266.088 0.410484 267.49 0 269.337 0C271.253 0 272.69 0.410484 273.647 1.23145C274.674 1.984 275.187 3.14704 275.187 4.72056C275.187 6.29408 274.674 7.49133 273.647 8.3123C272.69 9.06485 271.287 9.44112 269.44 9.44112Z" fill="url(#paint1_linear_1172_2369)"/>
<path d="M251.152 72.9635C246.569 72.9635 243.148 71.6978 240.89 69.1665C238.701 66.6352 237.606 62.8724 237.606 57.8782V25.6552H229.602V19.0875H234.425C235.999 19.0875 237.128 18.8138 237.812 18.2665C238.564 17.6508 239.009 16.6588 239.146 15.2905L240.069 7.18346H244.893V19.0875H260.696V25.7578H244.893V57.8782C244.893 60.6832 245.542 62.7356 246.842 64.0354C248.142 65.2669 249.989 65.8826 252.384 65.8826C253.684 65.8826 255.052 65.7116 256.489 65.3695C257.925 64.959 259.431 64.1723 261.004 63.0092V70.911C259.088 71.5952 257.31 72.1083 255.668 72.4504C254.026 72.7924 252.521 72.9635 251.152 72.9635Z" fill="url(#paint2_linear_1172_2369)"/>
<path d="M183.43 71.9372V19.0875H190.716L189.484 36.1226H191.024C192.05 31.9493 193.35 28.5286 194.923 25.8605C196.565 23.1239 198.618 21.1057 201.081 19.8058C203.543 18.506 206.383 17.856 209.598 17.856C215.345 17.856 219.689 19.9427 222.631 24.1159C225.641 28.2207 227.146 34.2754 227.146 42.2798V71.9372H219.552V42.7929C219.552 36.7041 218.56 32.1888 216.576 29.247C214.661 26.3052 211.787 24.8343 207.956 24.8343C204.604 24.8343 201.662 25.9289 199.131 28.1181C196.668 30.3074 194.752 33.1808 193.384 36.7383C192.016 40.2274 191.229 43.9902 191.024 48.0266V71.9372H183.43Z" fill="url(#paint3_linear_1172_2369)"/>
<path d="M155.669 73.1687C151.564 73.1687 147.973 72.553 144.894 71.3215C141.815 70.0217 139.216 68.1745 137.095 65.78C134.974 63.3855 133.4 60.5463 132.374 57.2625C131.348 53.9786 130.835 50.3526 130.835 46.3846C130.835 42.2798 131.348 38.517 132.374 35.0963C133.469 31.6072 135.042 28.5628 137.095 25.9631C139.147 23.3634 141.644 21.3794 144.586 20.0111C147.596 18.5744 151.051 17.856 154.951 17.856C158.235 17.856 161.245 18.4376 163.981 19.6006C166.718 20.6952 169.078 22.4056 171.062 24.7316C173.046 27.0577 174.551 30.0337 175.578 33.6597C176.604 37.2172 177.048 41.4588 176.912 46.3846L135.453 46.6925V40.8431L172.191 40.5353L169.626 44.948C169.899 40.4326 169.42 36.6699 168.189 33.6597C167.026 30.6494 165.281 28.3918 162.955 26.8867C160.697 25.3816 157.995 24.629 154.848 24.629C151.496 24.629 148.554 25.4842 146.023 27.1945C143.56 28.9049 141.644 31.402 140.276 34.6859C138.908 37.9013 138.224 41.7667 138.224 46.282C138.224 52.7813 139.66 57.8098 142.534 61.3673C145.475 64.8564 149.922 66.601 155.874 66.601C158.132 66.601 160.116 66.3615 161.826 65.8826C163.537 65.3353 164.973 64.5827 166.136 63.625C167.368 62.6672 168.394 61.5383 169.215 60.2385C170.036 58.9386 170.652 57.5019 171.062 55.9284L177.733 57.5703C177.048 60.0332 176.056 62.2567 174.757 64.2407C173.525 66.1563 171.986 67.7982 170.139 69.1665C168.291 70.4663 166.171 71.4584 163.776 72.1425C161.382 72.8266 158.679 73.1687 155.669 73.1687Z" fill="url(#paint4_linear_1172_2369)"/>
<path d="M116.452 71.9372V0.615724H124.046V71.9372H116.452Z" fill="url(#paint5_linear_1172_2369)"/>
<path d="M88.691 73.1687C84.5862 73.1687 80.9945 72.553 77.9158 71.3215C74.8372 70.0217 72.2375 68.1745 70.1167 65.78C67.9958 63.3855 66.4223 60.5463 65.3961 57.2625C64.3699 53.9786 63.8568 50.3526 63.8568 46.3846C63.8568 42.2798 64.3699 38.517 65.3961 35.0963C66.4907 31.6072 68.0642 28.5628 70.1167 25.9631C72.1691 23.3634 74.6662 21.3794 77.608 20.0111C80.6182 18.5744 84.0731 17.856 87.9727 17.856C91.2566 17.856 94.2668 18.4376 97.0033 19.6006C99.7399 20.6952 102.1 22.4056 104.084 24.7316C106.068 27.0577 107.573 30.0337 108.599 33.6597C109.626 37.2172 110.07 41.4588 109.934 46.3846L68.4747 46.6925V40.8431L105.213 40.5353L102.647 44.948C102.921 40.4326 102.442 36.6699 101.211 33.6597C100.048 30.6494 98.3032 28.3918 95.9771 26.8867C93.7195 25.3816 91.0171 24.629 87.8701 24.629C84.5178 24.629 81.576 25.4842 79.0447 27.1945C76.5818 28.9049 74.6662 31.402 73.2979 34.6859C71.9296 37.9013 71.2455 41.7667 71.2455 46.282C71.2455 52.7813 72.6822 57.8098 75.5556 61.3673C78.4974 64.8564 82.9443 66.601 88.8963 66.601C91.1539 66.601 93.1379 66.3615 94.8483 65.8826C96.5586 65.3353 97.9953 64.5827 99.1584 63.625C100.39 62.6672 101.416 61.5383 102.237 60.2385C103.058 58.9386 103.674 57.5019 104.084 55.9284L110.755 57.5703C110.07 60.0332 109.078 62.2567 107.779 64.2407C106.547 66.1563 105.008 67.7982 103.161 69.1665C101.313 70.4663 99.1926 71.4584 96.7981 72.1425C94.4036 72.8266 91.7012 73.1687 88.691 73.1687Z" fill="url(#paint6_linear_1172_2369)"/>
<path d="M44.3322 71.9372V4.20746H52.0288V71.9372H44.3322ZM0 71.9372V4.20746H7.69657V71.9372H0ZM3.48911 41.151V34.2754H47.6161V41.151H3.48911Z" fill="url(#paint7_linear_1172_2369)"/>
<defs>
<linearGradient id="paint0_linear_1172_2369" x1="247.501" y1="70.933" x2="247.501" y2="3.86173" gradientUnits="userSpaceOnUse">
<stop stop-color="#A9ABB5"/>
<stop offset="1" stop-color="#3E4049"/>
</linearGradient>
<linearGradient id="paint1_linear_1172_2369" x1="247.501" y1="70.933" x2="247.501" y2="3.86173" gradientUnits="userSpaceOnUse">
<stop stop-color="#A9ABB5"/>
<stop offset="1" stop-color="#3E4049"/>
</linearGradient>
<linearGradient id="paint2_linear_1172_2369" x1="247.501" y1="70.933" x2="247.501" y2="3.86173" gradientUnits="userSpaceOnUse">
<stop stop-color="#A9ABB5"/>
<stop offset="1" stop-color="#3E4049"/>
</linearGradient>
<linearGradient id="paint3_linear_1172_2369" x1="247.501" y1="70.933" x2="247.501" y2="3.86173" gradientUnits="userSpaceOnUse">
<stop stop-color="#A9ABB5"/>
<stop offset="1" stop-color="#3E4049"/>
</linearGradient>
<linearGradient id="paint4_linear_1172_2369" x1="247.501" y1="70.933" x2="247.501" y2="3.86173" gradientUnits="userSpaceOnUse">
<stop stop-color="#A9ABB5"/>
<stop offset="1" stop-color="#3E4049"/>
</linearGradient>
<linearGradient id="paint5_linear_1172_2369" x1="247.501" y1="70.933" x2="247.501" y2="3.86173" gradientUnits="userSpaceOnUse">
<stop stop-color="#A9ABB5"/>
<stop offset="1" stop-color="#3E4049"/>
</linearGradient>
<linearGradient id="paint6_linear_1172_2369" x1="247.501" y1="70.933" x2="247.501" y2="3.86173" gradientUnits="userSpaceOnUse">
<stop stop-color="#A9ABB5"/>
<stop offset="1" stop-color="#3E4049"/>
</linearGradient>
<linearGradient id="paint7_linear_1172_2369" x1="247.501" y1="70.933" x2="247.501" y2="3.86173" gradientUnits="userSpaceOnUse">
<stop stop-color="#A9ABB5"/>
<stop offset="1" stop-color="#3E4049"/>
</linearGradient>
</defs>
</svg>
